<svg xmlns="http://www.w3.org/2000/svg" viewBox="0 0 560 120" width="560" height="120"
     role="img" aria-label="World by Joe">
  <title>World by Joe</title>
  <g><defs><clipPath id="wbj"><circle cx="60" cy="60" r="52"/></clipPath></defs>
  <circle cx="60" cy="60" r="52" fill="#2B2118"/>
  <g clip-path="url(#wbj)">
   <g shape-rendering="crispEdges">
    <rect x="34.00" y="8.00" width="6.50" height="6.50" fill="#46909B"/>
    <rect x="40.50" y="8.00" width="6.50" height="6.50" fill="#4E9AA6"/>
    <rect x="47.00" y="8.00" width="6.50" height="6.50" fill="#4E9AA6"/>
    <rect x="53.50" y="8.00" width="6.50" height="6.50" fill="#469BA6"/>
    <rect x="60.00" y="8.00" width="6.50" height="6.50" fill="#4E9AA6"/>
    <rect x="66.50" y="8.00" width="6.50" height="6.50" fill="#469BA6"/>
    <rect x="73.00" y="8.00" width="6.50" height="6.50" fill="#4E9AA6"/>
    <rect x="79.50" y="8.00" width="6.50" height="6.50" fill="#469BA6"/>
    <rect x="21.00" y="14.50" width="6.50" height="6.50" fill="#5AA3AE"/>
    <rect x="27.50" y="14.50" width="6.50" height="6.50" fill="#4E9AA6"/>
    <rect x="34.00" y="14.50" width="6.50" height="6.50" fill="#C8992F"/>
    <rect x="40.50" y="14.50" width="6.50" height="6.50" fill="#D9B441"/>
    <rect x="47.00" y="14.50" width="6.50" height="6.50" fill="#D9B441"/>
    <rect x="53.50" y="14.50" width="6.50" height="6.50" fill="#C0522C"/>
    <rect x="60.00" y="14.50" width="6.50" height="6.50" fill="#C8992F"/>
    <rect x="66.50" y="14.50" width="6.50" height="6.50" fill="#46909B"/>
    <rect x="73.00" y="14.50" width="6.50" height="6.50" fill="#4E9AA6"/>
    <rect x="79.50" y="14.50" width="6.50" height="6.50" fill="#54A0AB"/>
    <rect x="86.00" y="14.50" width="6.50" height="6.50" fill="#469BA6"/>
    <rect x="92.50" y="14.50" width="6.50" height="6.50" fill="#54A0AB"/>
    <rect x="14.50" y="21.00" width="6.50" height="6.50" fill="#5AA3AE"/>
    <rect x="21.00" y="21.00" width="6.50" height="6.50" fill="#54A0AB"/>
    <rect x="27.50" y="21.00" width="6.50" height="6.50" fill="#469BA6"/>
    <rect x="34.00" y="21.00" width="6.50" height="6.50" fill="#54A0AB"/>
    <rect x="40.50" y="21.00" width="6.50" height="6.50" fill="#C8992F"/>
    <rect x="47.00" y="21.00" width="6.50" height="6.50" fill="#D9B441"/>
    <rect x="53.50" y="21.00" width="6.50" height="6.50" fill="#5AA3AE"/>
    <rect x="60.00" y="21.00" width="6.50" height="6.50" fill="#4E9AA6"/>
    <rect x="66.50" y="21.00" width="6.50" height="6.50" fill="#C8992F"/>
    <rect x="73.00" y="21.00" width="6.50" height="6.50" fill="#4E9AA6"/>
    <rect x="79.50" y="21.00" width="6.50" height="6.50" fill="#5AA3AE"/>
    <rect x="86.00" y="21.00" width="6.50" height="6.50" fill="#54A0AB"/>
    <rect x="92.50" y="21.00" width="6.50" height="6.50" fill="#469BA6"/>
    <rect x="99.00" y="21.00" width="6.50" height="6.50" fill="#54A0AB"/>
    <rect x="14.50" y="27.50" width="6.50" height="6.50" fill="#46909B"/>
    <rect x="21.00" y="27.50" width="6.50" height="6.50" fill="#4E9AA6"/>
    <rect x="27.50" y="27.50" width="6.50" height="6.50" fill="#54A0AB"/>
    <rect x="34.00" y="27.50" width="6.50" height="6.50" fill="#C8992F"/>
    <rect x="40.50" y="27.50" width="6.50" height="6.50" fill="#D9B441"/>
    <rect x="47.00" y="27.50" width="6.50" height="6.50" fill="#C8992F"/>
    <rect x="53.50" y="27.50" width="6.50" height="6.50" fill="#B8862B"/>
    <rect x="60.00" y="27.50" width="6.50" height="6.50" fill="#D9B441"/>
    <rect x="66.50" y="27.50" width="6.50" height="6.50" fill="#C0522C"/>
    <rect x="73.00" y="27.50" width="6.50" height="6.50" fill="#5AA3AE"/>
    <rect x="79.50" y="27.50" width="6.50" height="6.50" fill="#46909B"/>
    <rect x="86.00" y="27.50" width="6.50" height="6.50" fill="#4E9AA6"/>
    <rect x="92.50" y="27.50" width="6.50" height="6.50" fill="#54A0AB"/>
    <rect x="99.00" y="27.50" width="6.50" height="6.50" fill="#5AA3AE"/>
    <rect x="8.00" y="34.00" width="6.50" height="6.50" fill="#46909B"/>
    <rect x="14.50" y="34.00" width="6.50" height="6.50" fill="#5AA3AE"/>
    <rect x="21.00" y="34.00" width="6.50" height="6.50" fill="#4E9AA6"/>
    <rect x="27.50" y="34.00" width="6.50" height="6.50" fill="#4E9AA6"/>
    <rect x="34.00" y="34.00" width="6.50" height="6.50" fill="#C0522C"/>
    <rect x="40.50" y="34.00" width="6.50" height="6.50" fill="#D9B441"/>
    <rect x="47.00" y="34.00" width="6.50" height="6.50" fill="#D9B441"/>
    <rect x="53.50" y="34.00" width="6.50" height="6.50" fill="#C8992F"/>
    <rect x="60.00" y="34.00" width="6.50" height="6.50" fill="#D9B441"/>
    <rect x="66.50" y="34.00" width="6.50" height="6.50" fill="#4E9AA6"/>
    <rect x="73.00" y="34.00" width="6.50" height="6.50" fill="#46909B"/>
    <rect x="79.50" y="34.00" width="6.50" height="6.50" fill="#469BA6"/>
    <rect x="86.00" y="34.00" width="6.50" height="6.50" fill="#4E9AA6"/>
    <rect x="92.50" y="34.00" width="6.50" height="6.50" fill="#469BA6"/>
    <rect x="99.00" y="34.00" width="6.50" height="6.50" fill="#54A0AB"/>
    <rect x="105.50" y="34.00" width="6.50" height="6.50" fill="#5AA3AE"/>
    <rect x="8.00" y="40.50" width="6.50" height="6.50" fill="#4E9AA6"/>
    <rect x="14.50" y="40.50" width="6.50" height="6.50" fill="#4E9AA6"/>
    <rect x="21.00" y="40.50" width="6.50" height="6.50" fill="#5AA3AE"/>
    <rect x="27.50" y="40.50" width="6.50" height="6.50" fill="#46909B"/>
    <rect x="34.00" y="40.50" width="6.50" height="6.50" fill="#C8992F"/>
    <rect x="40.50" y="40.50" width="6.50" height="6.50" fill="#B8862B"/>
    <rect x="47.00" y="40.50" width="6.50" height="6.50" fill="#4E9AA6"/>
    <rect x="53.50" y="40.50" width="6.50" height="6.50" fill="#54A0AB"/>
    <rect x="60.00" y="40.50" width="6.50" height="6.50" fill="#5AA3AE"/>
    <rect x="66.50" y="40.50" width="6.50" height="6.50" fill="#54A0AB"/>
    <rect x="73.00" y="40.50" width="6.50" height="6.50" fill="#469BA6"/>
    <rect x="79.50" y="40.50" width="6.50" height="6.50" fill="#4E9AA6"/>
    <rect x="86.00" y="40.50" width="6.50" height="6.50" fill="#469BA6"/>
    <rect x="92.50" y="40.50" width="6.50" height="6.50" fill="#46909B"/>
    <rect x="99.00" y="40.50" width="6.50" height="6.50" fill="#4E9AA6"/>
    <rect x="105.50" y="40.50" width="6.50" height="6.50" fill="#54A0AB"/>
    <rect x="8.00" y="47.00" width="6.50" height="6.50" fill="#4E9AA6"/>
    <rect x="14.50" y="47.00" width="6.50" height="6.50" fill="#469BA6"/>
    <rect x="21.00" y="47.00" width="6.50" height="6.50" fill="#54A0AB"/>
    <rect x="27.50" y="47.00" width="6.50" height="6.50" fill="#5AA3AE"/>
    <rect x="34.00" y="47.00" width="6.50" height="6.50" fill="#4E9AA6"/>
    <rect x="40.50" y="47.00" width="6.50" height="6.50" fill="#C8992F"/>
    <rect x="47.00" y="47.00" width="6.50" height="6.50" fill="#54A0AB"/>
    <rect x="53.50" y="47.00" width="6.50" height="6.50" fill="#4E9AA6"/>
    <rect x="60.00" y="47.00" width="6.50" height="6.50" fill="#46909B"/>
    <rect x="66.50" y="47.00" width="6.50" height="6.50" fill="#5AA3AE"/>
    <rect x="73.00" y="47.00" width="6.50" height="6.50" fill="#4E9AA6"/>
    <rect x="79.50" y="47.00" width="6.50" height="6.50" fill="#4E9AA6"/>
    <rect x="86.00" y="47.00" width="6.50" height="6.50" fill="#46909B"/>
    <rect x="92.50" y="47.00" width="6.50" height="6.50" fill="#4E9AA6"/>
    <rect x="99.00" y="47.00" width="6.50" height="6.50" fill="#4E9AA6"/>
    <rect x="105.50" y="47.00" width="6.50" height="6.50" fill="#469BA6"/>
    <rect x="8.00" y="53.50" width="6.50" height="6.50" fill="#5AA3AE"/>
    <rect x="14.50" y="53.50" width="6.50" height="6.50" fill="#4E9AA6"/>
    <rect x="21.00" y="53.50" width="6.50" height="6.50" fill="#4E9AA6"/>
    <rect x="27.50" y="53.50" width="6.50" height="6.50" fill="#4E9AA6"/>
    <rect x="34.00" y="53.50" width="6.50" height="6.50" fill="#5AA3AE"/>
    <rect x="40.50" y="53.50" width="6.50" height="6.50" fill="#46909B"/>
    <rect x="47.00" y="53.50" width="6.50" height="6.50" fill="#469BA6"/>
    <rect x="53.50" y="53.50" width="6.50" height="6.50" fill="#D9B441"/>
    <rect x="60.00" y="53.50" width="6.50" height="6.50" fill="#469BA6"/>
    <rect x="66.50" y="53.50" width="6.50" height="6.50" fill="#54A0AB"/>
    <rect x="73.00" y="53.50" width="6.50" height="6.50" fill="#5AA3AE"/>
    <rect x="79.50" y="53.50" width="6.50" height="6.50" fill="#54A0AB"/>
    <rect x="86.00" y="53.50" width="6.50" height="6.50" fill="#5AA3AE"/>
    <rect x="92.50" y="53.50" width="6.50" height="6.50" fill="#46909B"/>
    <rect x="99.00" y="53.50" width="6.50" height="6.50" fill="#4E9AA6"/>
    <rect x="105.50" y="53.50" width="6.50" height="6.50" fill="#46909B"/>
    <rect x="8.00" y="60.00" width="6.50" height="6.50" fill="#46909B"/>
    <rect x="14.50" y="60.00" width="6.50" height="6.50" fill="#5AA3AE"/>
    <rect x="21.00" y="60.00" width="6.50" height="6.50" fill="#4E9AA6"/>
    <rect x="27.50" y="60.00" width="6.50" height="6.50" fill="#469BA6"/>
    <rect x="34.00" y="60.00" width="6.50" height="6.50" fill="#54A0AB"/>
    <rect x="40.50" y="60.00" width="6.50" height="6.50" fill="#5AA3AE"/>
    <rect x="47.00" y="60.00" width="6.50" height="6.50" fill="#54A0AB"/>
    <rect x="53.50" y="60.00" width="6.50" height="6.50" fill="#469BA6"/>
    <rect x="60.00" y="60.00" width="6.50" height="6.50" fill="#54A0AB"/>
    <rect x="66.50" y="60.00" width="6.50" height="6.50" fill="#D9B441"/>
    <rect x="73.00" y="60.00" width="6.50" height="6.50" fill="#D9B441"/>
    <rect x="79.50" y="60.00" width="6.50" height="6.50" fill="#C8992F"/>
    <rect x="86.00" y="60.00" width="6.50" height="6.50" fill="#4E9AA6"/>
    <rect x="92.50" y="60.00" width="6.50" height="6.50" fill="#4E9AA6"/>
    <rect x="99.00" y="60.00" width="6.50" height="6.50" fill="#54A0AB"/>
    <rect x="105.50" y="60.00" width="6.50" height="6.50" fill="#469BA6"/>
    <rect x="8.00" y="66.50" width="6.50" height="6.50" fill="#5AA3AE"/>
    <rect x="14.50" y="66.50" width="6.50" height="6.50" fill="#46909B"/>
    <rect x="21.00" y="66.50" width="6.50" height="6.50" fill="#5AA3AE"/>
    <rect x="27.50" y="66.50" width="6.50" height="6.50" fill="#46909B"/>
    <rect x="34.00" y="66.50" width="6.50" height="6.50" fill="#4E9AA6"/>
    <rect x="40.50" y="66.50" width="6.50" height="6.50" fill="#54A0AB"/>
    <rect x="47.00" y="66.50" width="6.50" height="6.50" fill="#5AA3AE"/>
    <rect x="53.50" y="66.50" width="6.50" height="6.50" fill="#4E9AA6"/>
    <rect x="60.00" y="66.50" width="6.50" height="6.50" fill="#469BA6"/>
    <rect x="66.50" y="66.50" width="6.50" height="6.50" fill="#B8862B"/>
    <rect x="73.00" y="66.50" width="6.50" height="6.50" fill="#C8992F"/>
    <rect x="79.50" y="66.50" width="6.50" height="6.50" fill="#D9B441"/>
    <rect x="86.00" y="66.50" width="6.50" height="6.50" fill="#C8992F"/>
    <rect x="92.50" y="66.50" width="6.50" height="6.50" fill="#46909B"/>
    <rect x="99.00" y="66.50" width="6.50" height="6.50" fill="#5AA3AE"/>
    <rect x="105.50" y="66.50" width="6.50" height="6.50" fill="#4E9AA6"/>
    <rect x="8.00" y="73.00" width="6.50" height="6.50" fill="#54A0AB"/>
    <rect x="14.50" y="73.00" width="6.50" height="6.50" fill="#4E9AA6"/>
    <rect x="21.00" y="73.00" width="6.50" height="6.50" fill="#54A0AB"/>
    <rect x="27.50" y="73.00" width="6.50" height="6.50" fill="#5AA3AE"/>
    <rect x="34.00" y="73.00" width="6.50" height="6.50" fill="#46909B"/>
    <rect x="40.50" y="73.00" width="6.50" height="6.50" fill="#5AA3AE"/>
    <rect x="47.00" y="73.00" width="6.50" height="6.50" fill="#54A0AB"/>
    <rect x="53.50" y="73.00" width="6.50" height="6.50" fill="#469BA6"/>
    <rect x="60.00" y="73.00" width="6.50" height="6.50" fill="#46909B"/>
    <rect x="66.50" y="73.00" width="6.50" height="6.50" fill="#C8992F"/>
    <rect x="73.00" y="73.00" width="6.50" height="6.50" fill="#C0522C"/>
    <rect x="79.50" y="73.00" width="6.50" height="6.50" fill="#D9B441"/>
    <rect x="86.00" y="73.00" width="6.50" height="6.50" fill="#B8862B"/>
    <rect x="92.50" y="73.00" width="6.50" height="6.50" fill="#C8992F"/>
    <rect x="99.00" y="73.00" width="6.50" height="6.50" fill="#46909B"/>
    <rect x="105.50" y="73.00" width="6.50" height="6.50" fill="#4E9AA6"/>
    <rect x="8.00" y="79.50" width="6.50" height="6.50" fill="#4E9AA6"/>
    <rect x="14.50" y="79.50" width="6.50" height="6.50" fill="#4E9AA6"/>
    <rect x="21.00" y="79.50" width="6.50" height="6.50" fill="#4E9AA6"/>
    <rect x="27.50" y="79.50" width="6.50" height="6.50" fill="#4E9AA6"/>
    <rect x="34.00" y="79.50" width="6.50" height="6.50" fill="#5AA3AE"/>
    <rect x="40.50" y="79.50" width="6.50" height="6.50" fill="#54A0AB"/>
    <rect x="47.00" y="79.50" width="6.50" height="6.50" fill="#4E9AA6"/>
    <rect x="53.50" y="79.50" width="6.50" height="6.50" fill="#46909B"/>
    <rect x="60.00" y="79.50" width="6.50" height="6.50" fill="#469BA6"/>
    <rect x="66.50" y="79.50" width="6.50" height="6.50" fill="#C0522C"/>
    <rect x="73.00" y="79.50" width="6.50" height="6.50" fill="#C8992F"/>
    <rect x="79.50" y="79.50" width="6.50" height="6.50" fill="#D9B441"/>
    <rect x="86.00" y="79.50" width="6.50" height="6.50" fill="#C8992F"/>
    <rect x="92.50" y="79.50" width="6.50" height="6.50" fill="#4E9AA6"/>
    <rect x="99.00" y="79.50" width="6.50" height="6.50" fill="#4E9AA6"/>
    <rect x="105.50" y="79.50" width="6.50" height="6.50" fill="#46909B"/>
    <rect x="14.50" y="86.00" width="6.50" height="6.50" fill="#469BA6"/>
    <rect x="21.00" y="86.00" width="6.50" height="6.50" fill="#4E9AA6"/>
    <rect x="27.50" y="86.00" width="6.50" height="6.50" fill="#4E9AA6"/>
    <rect x="34.00" y="86.00" width="6.50" height="6.50" fill="#4E9AA6"/>
    <rect x="40.50" y="86.00" width="6.50" height="6.50" fill="#469BA6"/>
    <rect x="47.00" y="86.00" width="6.50" height="6.50" fill="#46909B"/>
    <rect x="53.50" y="86.00" width="6.50" height="6.50" fill="#4E9AA6"/>
    <rect x="60.00" y="86.00" width="6.50" height="6.50" fill="#4E9AA6"/>
    <rect x="66.50" y="86.00" width="6.50" height="6.50" fill="#5AA3AE"/>
    <rect x="73.00" y="86.00" width="6.50" height="6.50" fill="#B8862B"/>
    <rect x="79.50" y="86.00" width="6.50" height="6.50" fill="#C8992F"/>
    <rect x="86.00" y="86.00" width="6.50" height="6.50" fill="#54A0AB"/>
    <rect x="92.50" y="86.00" width="6.50" height="6.50" fill="#4E9AA6"/>
    <rect x="99.00" y="86.00" width="6.50" height="6.50" fill="#46909B"/>
    <rect x="14.50" y="92.50" width="6.50" height="6.50" fill="#46909B"/>
    <rect x="21.00" y="92.50" width="6.50" height="6.50" fill="#5AA3AE"/>
    <rect x="27.50" y="92.50" width="6.50" height="6.50" fill="#46909B"/>
    <rect x="34.00" y="92.50" width="6.50" height="6.50" fill="#4E9AA6"/>
    <rect x="40.50" y="92.50" width="6.50" height="6.50" fill="#4E9AA6"/>
    <rect x="47.00" y="92.50" width="6.50" height="6.50" fill="#469BA6"/>
    <rect x="53.50" y="92.50" width="6.50" height="6.50" fill="#54A0AB"/>
    <rect x="60.00" y="92.50" width="6.50" height="6.50" fill="#469BA6"/>
    <rect x="66.50" y="92.50" width="6.50" height="6.50" fill="#D9B441"/>
    <rect x="73.00" y="92.50" width="6.50" height="6.50" fill="#D9B441"/>
    <rect x="79.50" y="92.50" width="6.50" height="6.50" fill="#54A0AB"/>
    <rect x="86.00" y="92.50" width="6.50" height="6.50" fill="#4E9AA6"/>
    <rect x="92.50" y="92.50" width="6.50" height="6.50" fill="#4E9AA6"/>
    <rect x="99.00" y="92.50" width="6.50" height="6.50" fill="#5AA3AE"/>
    <rect x="21.00" y="99.00" width="6.50" height="6.50" fill="#54A0AB"/>
    <rect x="27.50" y="99.00" width="6.50" height="6.50" fill="#4E9AA6"/>
    <rect x="34.00" y="99.00" width="6.50" height="6.50" fill="#46909B"/>
    <rect x="40.50" y="99.00" width="6.50" height="6.50" fill="#4E9AA6"/>
    <rect x="47.00" y="99.00" width="6.50" height="6.50" fill="#46909B"/>
    <rect x="53.50" y="99.00" width="6.50" height="6.50" fill="#469BA6"/>
    <rect x="60.00" y="99.00" width="6.50" height="6.50" fill="#46909B"/>
    <rect x="66.50" y="99.00" width="6.50" height="6.50" fill="#C8992F"/>
    <rect x="73.00" y="99.00" width="6.50" height="6.50" fill="#46909B"/>
    <rect x="79.50" y="99.00" width="6.50" height="6.50" fill="#5AA3AE"/>
    <rect x="86.00" y="99.00" width="6.50" height="6.50" fill="#4E9AA6"/>
    <rect x="92.50" y="99.00" width="6.50" height="6.50" fill="#5AA3AE"/>
    <rect x="34.00" y="105.50" width="6.50" height="6.50" fill="#5AA3AE"/>
    <rect x="40.50" y="105.50" width="6.50" height="6.50" fill="#46909B"/>
    <rect x="47.00" y="105.50" width="6.50" height="6.50" fill="#5AA3AE"/>
    <rect x="53.50" y="105.50" width="6.50" height="6.50" fill="#54A0AB"/>
    <rect x="60.00" y="105.50" width="6.50" height="6.50" fill="#4E9AA6"/>
    <rect x="66.50" y="105.50" width="6.50" height="6.50" fill="#54A0AB"/>
    <rect x="73.00" y="105.50" width="6.50" height="6.50" fill="#469BA6"/>
    <rect x="79.50" y="105.50" width="6.50" height="6.50" fill="#46909B"/>
   </g>
  <g stroke="#2B2118" stroke-width="1.00" stroke-opacity="1.00" stroke-linecap="butt">
    <line x1="60.00" y1="8.00" x2="60.00" y2="112.00"/>
    <line x1="8.00" y1="60.00" x2="60.00" y2="60.00"/>
    <line x1="27.50" y1="8.00" x2="27.50" y2="60.00"/>
    <line x1="8.00" y1="34.00" x2="27.50" y2="34.00"/>
    <line x1="8.00" y1="21.00" x2="27.50" y2="21.00"/>
    <line x1="14.50" y1="8.00" x2="14.50" y2="21.00"/>
    <line x1="14.50" y1="21.00" x2="14.50" y2="34.00"/>
    <line x1="27.50" y1="40.50" x2="60.00" y2="40.50"/>
    <line x1="34.00" y1="8.00" x2="34.00" y2="40.50"/>
    <line x1="27.50" y1="27.50" x2="34.00" y2="27.50"/>
    <line x1="27.50" y1="21.00" x2="34.00" y2="21.00"/>
    <line x1="34.00" y1="21.00" x2="60.00" y2="21.00"/>
    <line x1="40.50" y1="8.00" x2="40.50" y2="21.00"/>
    <line x1="53.50" y1="8.00" x2="53.50" y2="21.00"/>
    <line x1="47.00" y1="21.00" x2="47.00" y2="40.50"/>
    <line x1="34.00" y1="27.50" x2="47.00" y2="27.50"/>
    <line x1="47.00" y1="34.00" x2="60.00" y2="34.00"/>
    <line x1="34.00" y1="40.50" x2="34.00" y2="60.00"/>
    <line x1="53.50" y1="40.50" x2="53.50" y2="60.00"/>
    <line x1="47.00" y1="40.50" x2="47.00" y2="60.00"/>
    <line x1="47.00" y1="47.00" x2="53.50" y2="47.00"/>
    <line x1="53.50" y1="53.50" x2="60.00" y2="53.50"/>
    <line x1="34.00" y1="60.00" x2="34.00" y2="112.00"/>
    <line x1="8.00" y1="105.50" x2="34.00" y2="105.50"/>
    <line x1="8.00" y1="73.00" x2="34.00" y2="73.00"/>
    <line x1="8.00" y1="86.00" x2="34.00" y2="86.00"/>
    <line x1="14.50" y1="73.00" x2="14.50" y2="86.00"/>
    <line x1="21.00" y1="86.00" x2="21.00" y2="105.50"/>
    <line x1="8.00" y1="99.00" x2="21.00" y2="99.00"/>
    <line x1="14.50" y1="105.50" x2="14.50" y2="112.00"/>
    <line x1="27.50" y1="105.50" x2="27.50" y2="112.00"/>
    <line x1="60.00" y1="99.00" x2="112.00" y2="99.00"/>
    <line x1="60.00" y1="53.50" x2="112.00" y2="53.50"/>
    <line x1="92.50" y1="8.00" x2="92.50" y2="53.50"/>
    <line x1="60.00" y1="34.00" x2="92.50" y2="34.00"/>
    <line x1="73.00" y1="8.00" x2="73.00" y2="34.00"/>
    <line x1="60.00" y1="27.50" x2="73.00" y2="27.50"/>
    <line x1="60.00" y1="14.50" x2="73.00" y2="14.50"/>
    <line x1="73.00" y1="21.00" x2="92.50" y2="21.00"/>
    <line x1="79.50" y1="8.00" x2="79.50" y2="21.00"/>
    <line x1="79.50" y1="21.00" x2="79.50" y2="34.00"/>
    <line x1="79.50" y1="34.00" x2="79.50" y2="53.50"/>
    <line x1="73.00" y1="34.00" x2="73.00" y2="53.50"/>
    <line x1="60.00" y1="47.00" x2="73.00" y2="47.00"/>
    <line x1="73.00" y1="47.00" x2="79.50" y2="47.00"/>
    <line x1="79.50" y1="47.00" x2="92.50" y2="47.00"/>
    <line x1="92.50" y1="27.50" x2="112.00" y2="27.50"/>
    <line x1="105.50" y1="8.00" x2="105.50" y2="27.50"/>
    <line x1="92.50" y1="21.00" x2="105.50" y2="21.00"/>
    <line x1="105.50" y1="21.00" x2="112.00" y2="21.00"/>
    <line x1="92.50" y1="47.00" x2="112.00" y2="47.00"/>
    <line x1="105.50" y1="27.50" x2="105.50" y2="47.00"/>
    <line x1="92.50" y1="34.00" x2="105.50" y2="34.00"/>
    <line x1="105.50" y1="40.50" x2="112.00" y2="40.50"/>
    <line x1="99.00" y1="47.00" x2="99.00" y2="53.50"/>
    <line x1="79.50" y1="53.50" x2="79.50" y2="99.00"/>
    <line x1="60.00" y1="92.50" x2="79.50" y2="92.50"/>
    <line x1="60.00" y1="73.00" x2="79.50" y2="73.00"/>
    <line x1="66.50" y1="53.50" x2="66.50" y2="73.00"/>
    <line x1="60.00" y1="66.50" x2="66.50" y2="66.50"/>
    <line x1="66.50" y1="66.50" x2="79.50" y2="66.50"/>
    <line x1="79.50" y1="66.50" x2="112.00" y2="66.50"/>
    <line x1="92.50" y1="53.50" x2="92.50" y2="66.50"/>
    <line x1="105.50" y1="53.50" x2="105.50" y2="66.50"/>
    <line x1="99.00" y1="66.50" x2="99.00" y2="99.00"/>
    <line x1="79.50" y1="73.00" x2="99.00" y2="73.00"/>
    <line x1="92.50" y1="66.50" x2="92.50" y2="73.00"/>
    <line x1="79.50" y1="79.50" x2="99.00" y2="79.50"/>
    <line x1="92.50" y1="73.00" x2="92.50" y2="79.50"/>
    <line x1="99.00" y1="86.00" x2="112.00" y2="86.00"/>
    <line x1="99.00" y1="79.50" x2="112.00" y2="79.50"/>
    <line x1="86.00" y1="99.00" x2="86.00" y2="112.00"/>
    <line x1="105.50" y1="99.00" x2="105.50" y2="112.00"/>
  </g>
  </g>
  <circle cx="60" cy="60" r="52" fill="none" stroke="#2B2118" stroke-width="5"/>
</g>
  <text x="150" y="74" font-family="Futura,'Futura PT','Century Gothic','Avenir Next',Questrial,'Trebuchet MS',sans-serif" font-size="34" font-weight="600"
        letter-spacing="5.4" fill="#2B2118">WORLD <tspan font-weight="400" fill="#8A7F6D">BY</tspan> JOE</text>
</svg>
